<?xml version="1.0" encoding="UTF-8"?>
<svg version="1.1" viewBox="0 0 640 512" xmlns="http://www.w3.org/2000/svg">
 <defs>
  <linearGradient id="linearGradient14" x1="13.879" x2="626.21" y1="255.7" y2="255.7" gradientTransform="matrix(.6825 0 0 .6825 101.57 81.481)" gradientUnits="userSpaceOnUse">
   <stop stop-color="#6931a8" offset="0"/>
   <stop stop-color="#aa4aff" offset="1"/>
  </linearGradient>
 </defs>
 <path d="m141.77 110.21c2.0475-4.1633 6.552-6.552 11.125-5.9378l167.08 20.885 167.08-20.885c4.5728-0.546 9.0773 1.8428 11.125 5.9378l28.46 56.921c6.1425 12.217-0.4095 27.027-13.514 30.781l-111.52 31.873c-9.4868 2.73-19.656-1.2968-24.707-9.7598l-56.921-94.868-56.921 94.868c-5.0505 8.463-15.22 12.49-24.707 9.7598l-111.45-31.873c-13.172-3.7538-19.656-18.564-13.514-30.781zm178.95 58.627 37.469 62.381c10.169 16.926 30.44 24.98 49.481 19.52l87.019-24.843v113.98c0 15.015-10.238 28.119-24.843 31.805l-139.3 34.808c-6.9615 1.7745-14.264 1.7745-21.158 0l-139.3-34.808c-14.606-3.7538-24.843-16.858-24.843-31.873v-113.98l87.087 24.911c18.974 5.46 39.312-2.5935 49.481-19.52l37.401-62.381z" fill="url(#linearGradient14)" stroke-width=".6825"/>
</svg>
