<?xml version="1.0" encoding="UTF-8"?>
<svg version="1.1" viewBox="0 0 576 512" xmlns="http://www.w3.org/2000/svg" xmlns:xlink="http://www.w3.org/1999/xlink">
 <defs>
  <linearGradient id="linearGradient2" x1=".025" x2="576.08" y1="256" y2="256" gradientTransform="matrix(.69744 0 0 .69744 87.102 77.455)" gradientUnits="userSpaceOnUse">
   <stop stop-color="#6931a8" offset="0"/>
   <stop stop-color="#aa4aff" offset="1"/>
  </linearGradient>
 </defs>
 <path d="m287.97 99.773c-56.353 0-101.48 25.666-134.33 56.214-32.64 30.269-54.47 66.536-64.792 91.434-2.3016 5.5098-2.3016 11.647 0 17.157 10.322 24.899 32.152 61.165 64.792 91.434 32.849 30.548 77.974 56.214 134.33 56.214 56.353 0 101.48-25.666 134.33-56.214 32.64-30.339 54.47-66.536 64.862-91.434 2.3016-5.5098 2.3016-11.647 0-17.157-10.392-24.899-32.222-61.165-64.862-91.434-32.849-30.548-77.974-56.214-134.33-56.214zm-100.43 156.23a100.43 100.43 0 1 1 200.86 0 100.43 100.43 0 1 1-200.86 0zm100.43-44.636c0 24.62-20.017 44.636-44.636 44.636-4.9518 0-9.6944-0.83693-14.158-2.3016-3.8359-1.2554-8.2995 1.1159-8.16 5.161 0.20923 4.8123 0.90667 9.6247 2.2318 14.437 9.5549 35.709 46.31 56.911 82.019 47.356s56.911-46.31 47.356-82.019c-7.7416-28.944-33.338-48.402-61.793-49.588-4.0452-0.13949-6.4164 4.2544-5.1611 8.16 1.4646 4.4636 2.3016 9.2062 2.3016 14.158z" fill="url(#linearGradient2)" stroke-width=".69744"/>
</svg>
