<svg width="120" height="120" version="1.1" viewBox="0 0 120 120" xmlns="http://www.w3.org/2000/svg">
 <g transform="translate(0 3.1585)" fill="#abf3f7" stroke="#000010">
  <path d="m59.999 4.2076c-1.7614 1.65e-4 -3.1894 1.4282-3.1893 3.1897 0.036 0.93917 0.48425 1.8146 1.2252 2.3927v24.705c-0.25202 0.37536-0.39119 0.81506-0.40102 1.2671 0 1.3061 1.059 2.3649 2.3651 2.3651 1.3062 4.5e-5 2.3653-1.0588 2.3655-2.3651-3.4e-5 -0.46923-0.13963-0.92791-0.40103-1.3176v-24.654c0.74098-0.5781 1.1893-1.4536 1.2252-2.3927 0-1.7616-1.428-3.1897-3.1897-3.1897zm4.512 5.5333v3.6823c15.175 2.0364 27.117 13.964 29.171 29.137h3.6823c-2.0979-17.194-15.656-30.739-32.852-32.819zm-9.0244 0.07295c-17.144 2.1033-30.66 15.604-32.782 32.746h3.6519c2.0672-15.142 13.986-27.046 29.13-29.094zm-2.0218 9.2549v7.9818l-13.581 13.581h-4.131v3.7957h0.17287v0.07429h6.612l0.0057 0.0057 0.0057-0.0057h0.08778l0.07989 0.0799 14.217-14.217h0.11583v-11.222h-0.17322v-0.07429zm9.3659 0.07429v11.222h0.11581l14.217 14.217 0.07989-0.0799h6.7105v-3.7957h-4.1314l-13.581-13.581v-7.9818zm-8.6133 16.175-2.5304 2.5304 5.8808 5.8808v0.03658h4.8495l0.0069 0.0069 5.886-5.8856-2.5304-2.5307-4.8308 4.8308h-1.8624zm-3.5008 3.5396-2.5304 2.5304 4.8304 4.8304v1.8628l-4.8692 4.8695 2.5304 2.5304 5.8804-5.8804h0.03703v-4.8498l0.0069-0.0069zm18.603 0-5.8808 5.8808h-0.03658v4.8495l-0.0069 0.0069 5.886 5.886 2.5304-2.5304-4.8304-4.8305v-1.8631l4.8692-4.8692zm-49.053 5.0821c-1.7614 0-3.1894 1.4282-3.1893 3.1897-4.6e-5 1.7614 1.4279 3.1895 3.1893 3.1897 0.93909-0.036 1.8146-0.48429 2.3927-1.2253h24.705c0.37524 0.25195 0.81482 0.39113 1.2667 0.40104 1.3064 3.5e-5 2.3655-1.0591 2.3655-2.3655 4.5e-5 -1.3064-1.0591-2.3655-2.3655-2.3655-0.45187 0.01029-0.89148 0.14908-1.2667 0.40104h-24.594c-0.60247-0.77076-1.5255-1.2225-2.5037-1.2253zm79.466 0c-0.93901 0.036-1.8144 0.48434-2.3924 1.2253h-24.654c-0.3896-0.26133-0.84813-0.40094-1.3172-0.40103-1.3064-5.7e-5 -2.3655 1.059-2.3655 2.3655-4.6e-5 1.3064 1.0591 2.3655 2.3655 2.3655 0.45189-0.01029 0.8915-0.14908 1.2667-0.40104h24.705c0.57805 0.74091 1.4534 1.1892 2.3924 1.2253 1.7616 0 3.1898-1.428 3.1897-3.1897 0-1.7616-1.428-3.1897-3.1897-3.1897zm-57.014 5.6495-0.0799 0.07989h-6.7109v3.7957h4.1314l13.581 13.581v7.9818h3.4105v-11.221h-0.11545zm34.448 0-14.218 14.217h-0.11546v11.221h3.4105v-7.9818l13.581-13.581h4.1314v-3.7957h-6.7105zm-19.591 0.97628-5.886 5.886 2.5304 2.5304 4.8304-4.8305h1.8628l4.8695 4.8695 2.5304-2.5307-5.8808-5.8804v-0.03692h-4.8495zm-34.874 1.0185c2.0895 17.174 15.616 30.716 32.788 32.824v-3.6519c-15.172-2.0543-27.1-13.997-29.136-29.172zm70.948 0c-2.0356 15.175-13.964 27.118-29.136 29.172v3.7249c17.225-2.0836 30.797-15.67 32.863-32.897zm-33.648 4.5477c-1.3062 0-2.3651 1.0592-2.3651 2.3655 0.01029 0.45198 0.14902 0.89173 0.40103 1.2671v24.704c-0.74096 0.5781-1.1893 1.4536-1.2252 2.3927 0 1.7614 1.4279 3.1895 3.1893 3.1897 1.7616 0 3.1897-1.4281 3.1897-3.1897-0.0034-0.97816-0.45458-1.901-1.2252-2.5034v-24.594c0.25202-0.37533 0.39118-0.81506 0.40102-1.2671 5.7e-5 -1.3063-1.0591-2.3655-2.3655-2.3655z" stroke-width=".3"/>
  <text x="15.031295" y="110.67889" font-family="zcool-gdh" font-size="22.496px" stroke-width=".18746" xml:space="preserve"><tspan x="15.031295" y="110.67889" stroke-width=".18746">一饼智投</tspan></text>
 </g>
</svg>
