<?xml version="1.0" encoding="UTF-8"?>
<svg version="1.1" viewBox="0 0 640 512" xmlns="http://www.w3.org/2000/svg" xmlns:xlink="http://www.w3.org/1999/xlink">
 <defs>
  <linearGradient id="linearGradient3" x1="26.69" x2="642.21" y1="273.38" y2="273.38" gradientUnits="userSpaceOnUse">
   <stop stop-color="#6931a8" offset="0"/>
   <stop stop-color="#aa4aff" offset="1"/>
  </linearGradient>
 </defs>
 <g transform="translate(-14.448 -17.379)" fill="url(#linearGradient3)">
  <path d="m451.15 153.97v167.17h-238.82v-167.17zm-238.82-47.764c-26.345 0-47.764 21.419-47.764 47.764v167.17c0 26.345 21.419 47.764 47.764 47.764h87.542l-7.9855 23.882h-55.674c-13.21 0-23.882 10.672-23.882 23.882 0 13.21 10.672 23.882 23.882 23.882h191.05c13.21 0 23.882-10.672 23.882-23.882 0-13.21-10.672-23.882-23.882-23.882h-55.749l-7.9855-23.882h87.616c26.345 0 47.764-21.419 47.764-47.764v-167.17c0-26.345-21.419-47.764-47.764-47.764zm346.29 0c-19.777 0-35.823 16.046-35.823 35.823v262.7c0 19.777 16.046 35.823 35.823 35.823h47.764c19.777 0 35.823-16.046 35.823-35.823v-262.7c0-19.777-16.046-35.823-35.823-35.823zm11.941 47.764h23.882c6.5675 0 11.941 5.3734 11.941 11.941 0 6.5675-5.3734 11.941-11.941 11.941h-23.882c-6.5675 0-11.941-5.3734-11.941-11.941 0-6.5675 5.3734-11.941 11.941-11.941zm-11.941 59.704c0-6.5675 5.3734-11.941 11.941-11.941h23.882c6.5675 0 11.941 5.3734 11.941 11.941 0 6.5675-5.3734 11.941-11.941 11.941h-23.882c-6.5675 0-11.941-5.3734-11.941-11.941zm23.882 119.41a23.882 23.882 0 1 1 0 47.764 23.882 23.882 0 1 1 0-47.764z" stroke-width=".74631"/>
  <path d="m26.69 285.93c0-12.183 9.9052-22.088 22.088-22.088h77.309c12.183 0 22.088 9.9052 22.088 22.088v132.53c0 12.183-9.9052 22.088-22.088 22.088h-77.309c-12.183 0-22.088-9.9052-22.088-22.088zm44.176 132.53c0 3.0371 2.4849 5.522 5.522 5.522h22.088c3.0371 0 5.522-2.4849 5.522-5.522 0-3.0371-2.4849-5.522-5.522-5.522h-22.088c-3.0371 0-5.522 2.4849-5.522 5.522zm55.22-132.53h-77.309v110.44h77.309z" stroke-width=".34513"/>
 </g>
</svg>
