<svg width="640" height="512" version="1.1" viewBox="0 0 640 512" xmlns="http://www.w3.org/2000/svg">
 <defs>
  <linearGradient id="linearGradient2" x1="127.99" x2="384.01" y1="256" y2="256" gradientTransform="translate(64.004 -.003425)" gradientUnits="userSpaceOnUse">
   <stop stop-color="#6931a8" offset="0"/>
   <stop stop-color="#aa4aff" offset="1"/>
  </linearGradient>
 </defs>
 <path d="m231.3 130.5c-4.7503-3.7002-11.501-3.2502-15.801 1.0001l-20.001 20.001c-4.2502 4.2502-4.7003 11.001-1.05 15.801l40.002 52.003c2.2501 2.9502 5.8003 4.7003 9.5005 4.7003h27.051l54.503 54.503c-7.3504 14.501-5.0003 32.702 7.1504 44.802l56.003 56.003c6.2503 6.2504 16.401 6.2504 22.651 0l32.002-32.002c6.2504-6.2504 6.2504-16.401 0-22.651l-56.003-56.003c-12.101-12.101-30.302-14.501-44.802-7.1504l-54.503-54.503v-27.001c0-3.7502-1.7501-7.2504-4.7003-9.5005zm-29.352 195.56c-6.3504 6.3504-9.9506 15.001-9.9506 24.001 0 18.751 15.201 33.952 33.952 33.952 9.0005 0 17.651-3.6002 24.001-9.9506l58.903-58.903c-3.9002-10.451-4.5002-21.801-1.8001-32.552l-30.852-30.852zm246.06-126.06c0-5.2503-0.55003-10.351-1.6001-15.251-1.2001-5.6003-8.0504-7.0504-12.101-3.0002l-31.952 31.952c-1.5001 1.5001-3.5502 2.3501-5.6503 2.3501h-28.702c-4.4002 0-8.0004-3.6002-8.0004-8.0004v-28.752c0-2.1001 0.85005-4.1502 2.3501-5.6503l31.952-31.952c4.0502-4.0502 2.6001-10.901-3.0002-12.101-4.9503-1.0501-10.051-1.6001-15.301-1.6001-39.752 0-72.004 32.252-72.004 72.004v0.40002l42.652 42.652c18.001-4.5502 37.902 0.25001 52.003 14.351l7.8504 7.8504c24.501-11.501 41.502-36.402 41.502-65.254zm-228.01 144.01a12.001 12.001 0 1 1 24.001 0 12.001 12.001 0 1 1-24.001 0z" fill="url(#linearGradient2)" stroke-width=".50003"/>
</svg>
